<svg width="465" height="700" viewBox="0 0 465 700" fill="none" xmlns="http://www.w3.org/2000/svg">
<path d="M81.8758 300.102V109.096C81.8758 101.194 75.4728 94.7879 67.5743 94.7879C59.6759 94.7879 53.2729 101.194 53.2729 109.096V309.223C53.2729 332.633 72.2417 351.61 95.6409 351.61C119.04 351.61 138.009 332.633 138.009 309.223V97.1663C138.009 90.1239 143.715 84.4149 150.755 84.4149C157.752 84.4149 163.441 90.0588 163.5 97.0591L165.417 325.267C165.485 333.316 172.026 339.806 180.072 339.806C188.217 339.806 194.799 333.163 194.727 325.015L192.716 96.2143C192.516 73.4406 174.005 55.0843 151.241 55.0843C128.333 55.0843 109.764 73.6622 109.764 96.5792V300.102C109.764 307.807 103.521 314.052 95.8197 314.052C88.1187 314.052 81.8758 307.807 81.8758 300.102Z" fill="black"/>
<path d="M244.555 501.147V141.13C244.555 133.228 238.152 126.823 230.253 126.823C222.355 126.823 215.952 133.228 215.952 141.13V539.218C215.952 562.627 234.921 581.604 258.32 581.604C281.719 581.604 300.688 562.627 300.688 539.218V121.152C300.688 114.139 306.371 108.454 313.38 108.454C320.39 108.454 326.073 114.139 326.073 121.152V685.514C326.073 693.514 332.556 700 340.553 700C348.55 700 355.033 693.514 355.033 685.514V97.8283C355.033 75.0116 336.545 56.5151 313.738 56.5151C290.931 56.5151 272.443 75.0116 272.443 97.8283V501.147C272.443 508.852 266.2 515.097 258.499 515.097C250.798 515.097 244.555 508.852 244.555 501.147Z" fill="black"/>
<path d="M0 177.414C0 169.513 6.40298 163.107 14.3014 163.107C22.1999 163.107 28.6029 169.513 28.6029 177.414V273.991C28.6029 281.893 22.1999 288.298 14.3014 288.298C6.40298 288.298 0 281.893 0 273.991V177.414Z" fill="black"/>
<path d="M378.273 256.106C378.273 248.204 384.676 241.799 392.575 241.799C400.473 241.799 406.876 248.204 406.876 256.106V352.683C406.876 360.585 400.473 366.99 392.575 366.99C384.676 366.99 378.273 360.585 378.273 352.683V256.106Z" fill="black"/>
<path d="M436.733 157.639C438.444 149.925 446.081 145.058 453.792 146.769C461.503 148.48 466.368 156.121 464.658 163.836L455.677 204.343C453.967 212.058 446.329 216.924 438.618 215.213C430.907 213.502 426.042 205.861 427.753 198.147L436.733 157.639Z" fill="black"/>
<path d="M373.983 489.32C373.983 481.418 380.386 475.013 388.284 475.013C396.183 475.013 402.586 481.418 402.586 489.32V518.651C402.586 526.553 396.183 532.959 388.284 532.959C380.386 532.959 373.983 526.553 373.983 518.651V489.32Z" fill="black"/>
<path d="M276.733 616.3C276.733 627.561 267.609 636.689 256.353 636.689C245.098 636.689 235.974 627.561 235.974 616.3C235.974 605.04 245.098 595.912 256.353 595.912C267.609 595.912 276.733 605.04 276.733 616.3Z" fill="black"/>
<path d="M336.799 20.3883C336.799 31.6485 327.675 40.7767 316.419 40.7767C305.164 40.7767 296.04 31.6485 296.04 20.3883C296.04 9.12818 305.164 0 316.419 0C327.675 0 336.799 9.12818 336.799 20.3883Z" fill="black"/>
</svg>
