<svg width="1080" height="1080" viewBox="0 0 1080 1080" fill="none" xmlns="http://www.w3.org/2000/svg">
<path fill-rule="evenodd" clip-rule="evenodd" d="M572.37 583.654L654.932 641.086L671.376 607.477L610.635 561.72L674.327 516.484L661.136 480.456L572.37 544.32L572.37 583.654ZM510.052 544.263L420.092 482.181L405.242 519.909L471.715 567.293L408.757 610.044L425.429 646.064L510.052 583.598L510.052 544.263ZM562.547 511.521L623.22 424.862L588.77 410.187L541.38 474.209L496.989 410.387L462.604 425.213L519.934 511.521L562.547 511.521ZM562.359 521.695L562.682 669.664L520.098 669.757L519.774 521.788L562.359 521.695Z" fill="#212236"/>
</svg>
